<?xml version="1.0" standalone="no"?>
<!DOCTYPE svg PUBLIC "-//W3C//DTD SVG 20010904//EN"
 "http://www.w3.org/TR/2001/REC-SVG-20010904/DTD/svg10.dtd">
<svg version="1.0" xmlns="http://www.w3.org/2000/svg"
 width="1280.000000pt" height="1021.000000pt" viewBox="0 0 1280.000000 1021.000000"
 preserveAspectRatio="xMidYMid meet">
<metadata>
Created by potrace 1.15, written by Peter Selinger 2001-2017
</metadata>
<g transform="translate(0.000000,1021.000000) scale(0.100000,-0.100000)"
fill="#000000" stroke="none">
<path d="M3576 10181 c-295 -155 -743 -588 -856 -827 -70 -150 -190 -540 -211
-690 -11 -78 -28 -126 -51 -141 -7 -4 -62 -11 -123 -14 -87 -5 -130 -13 -208
-39 -202 -68 -557 -263 -660 -364 -25 -23 -80 -96 -124 -162 -94 -140 -149
-193 -227 -223 -102 -38 -113 -34 -219 75 -50 53 -104 102 -119 110 -73 38
-415 -11 -565 -82 -77 -37 -155 -112 -184 -177 -33 -73 -33 -214 -1 -305 45
-127 140 -245 236 -294 21 -11 70 -26 110 -35 120 -25 280 -7 671 77 547 118
729 127 902 46 83 -40 146 -99 176 -165 47 -100 26 -519 -37 -762 -25 -94 -43
-130 -79 -153 -39 -26 -193 -72 -527 -156 -735 -186 -878 -253 -868 -407 4
-66 25 -76 143 -69 151 8 359 52 960 202 l260 66 105 -33 c199 -60 346 -134
605 -304 157 -103 314 -222 393 -299 92 -89 119 -160 251 -663 33 -126 76
-289 96 -363 151 -578 174 -722 144 -937 -33 -248 -121 -381 -369 -565 -156
-116 -249 -153 -546 -217 -325 -71 -509 -138 -582 -214 -43 -44 -50 -84 -22
-120 32 -40 87 -36 307 24 252 69 369 89 517 89 181 0 284 -31 426 -125 81
-54 210 -171 210 -191 0 -8 -12 -19 -27 -25 -44 -16 -105 5 -249 86 -256 145
-279 152 -412 115 -142 -40 -290 -134 -339 -217 -31 -53 -26 -85 17 -103 41
-17 100 -8 261 40 135 41 209 50 209 28 0 -20 -32 -67 -103 -153 -89 -107
-115 -155 -99 -189 28 -61 92 -46 268 65 157 99 251 146 266 131 17 -17 0 -49
-84 -160 -124 -165 -128 -179 -64 -246 38 -40 61 -44 174 -26 93 15 98 12 106
-69 8 -77 23 -98 80 -111 94 -21 154 29 236 195 57 117 90 215 125 380 50 227
88 308 251 530 128 174 260 370 322 480 70 123 85 193 79 360 -4 113 -11 154
-51 310 -92 359 -145 682 -153 940 -7 200 5 265 58 309 27 23 39 26 112 26
134 0 381 -66 484 -129 63 -39 220 -258 342 -478 103 -184 499 -1077 560
-1261 46 -141 65 -251 65 -392 0 -154 -17 -226 -86 -369 -95 -194 -197 -268
-578 -421 -203 -81 -281 -123 -330 -176 -45 -49 -51 -87 -25 -151 39 -93 87
-86 384 57 212 101 294 124 416 117 107 -6 190 -33 346 -114 153 -79 238 -146
263 -206 18 -44 19 -51 5 -75 -22 -40 -70 -40 -165 -2 -107 43 -226 108 -384
211 -74 48 -151 95 -171 103 -35 15 -38 14 -80 -13 -24 -15 -84 -63 -134 -106
-49 -43 -133 -106 -186 -141 -53 -34 -99 -70 -103 -79 -4 -12 6 -30 33 -56 63
-64 122 -51 256 57 95 77 147 100 194 85 20 -6 49 -22 65 -37 24 -23 27 -32
22 -62 -8 -49 -65 -133 -161 -232 -89 -93 -108 -120 -99 -144 8 -20 46 -30 85
-22 37 7 124 67 209 143 252 225 305 196 203 -110 -45 -138 -58 -216 -38 -236
22 -22 69 -22 102 -2 24 15 45 47 84 128 28 59 68 145 90 189 46 96 98 150
129 134 81 -44 71 -282 -21 -479 -21 -46 -39 -95 -39 -108 0 -30 60 -93 88
-93 34 0 81 49 116 119 83 164 151 449 211 876 56 403 71 468 156 682 100 251
159 464 159 574 0 84 -39 240 -95 378 -57 143 -125 277 -408 806 -133 247
-253 477 -266 510 -31 74 -35 201 -9 251 23 42 93 104 121 105 164 8 260 -91
178 -183 -29 -32 -31 -33 -113 -33 -71 0 -83 -2 -86 -18 -5 -24 110 -141 162
-166 65 -31 149 -38 916 -81 982 -55 965 -53 1025 -123 124 -144 87 -426 -114
-884 -110 -251 -122 -316 -76 -427 50 -122 117 -217 321 -459 150 -179 162
-221 139 -483 -24 -272 -29 -508 -16 -724 17 -277 37 -358 97 -380 47 -18 106
26 118 90 4 19 1 127 -5 240 -18 302 2 407 102 515 94 102 369 255 525 291 60
13 68 13 90 -1 13 -8 24 -22 24 -29 0 -38 -131 -129 -391 -271 -184 -101 -226
-162 -216 -313 11 -147 73 -396 107 -427 29 -26 104 -16 139 19 l26 27 0 169
c0 186 6 210 46 174 12 -10 44 -65 72 -122 28 -59 60 -110 73 -119 18 -11 41
-14 86 -11 53 4 65 9 89 36 37 41 36 60 -1 214 -29 120 -39 218 -21 218 11 0
55 -70 112 -179 46 -87 96 -141 130 -141 11 0 41 20 67 44 41 39 47 49 46 83
-1 21 -24 92 -52 158 -62 148 -75 190 -70 235 4 40 23 49 70 29 35 -14 160
-154 221 -246 47 -71 64 -77 107 -35 55 56 47 165 -21 277 -39 66 -128 152
-343 334 -506 429 -646 722 -574 1206 21 142 91 327 217 570 95 185 152 273
225 352 73 79 129 108 194 98 109 -15 200 -78 249 -172 42 -79 61 -137 143
-438 129 -468 192 -650 247 -708 74 -77 191 -118 582 -202 149 -32 248 -62
257 -77 4 -7 11 -102 15 -213 8 -215 21 -290 66 -379 50 -100 183 -246 224
-246 9 0 29 14 44 32 42 50 33 104 -39 217 -86 136 -88 146 -84 388 4 196 5
212 32 288 37 107 156 352 190 393 32 37 76 43 115 16 38 -27 25 -85 -61 -274
-127 -276 -158 -413 -123 -538 21 -75 82 -149 148 -181 57 -28 70 -27 112 10
72 64 82 129 40 269 -29 97 -31 118 -10 126 18 7 54 -16 151 -99 109 -91 149
-90 149 5 0 45 -6 65 -34 109 -105 166 -114 185 -115 224 -1 39 0 40 32 39 21
-1 68 -25 140 -72 59 -39 119 -73 132 -77 40 -10 60 13 62 68 1 59 -15 83
-124 186 -83 78 -97 110 -57 132 34 18 97 5 182 -36 66 -32 84 -37 124 -32 49
5 83 32 83 67 0 39 -90 153 -239 300 -172 172 -253 231 -350 256 -61 15 -72
15 -180 -2 -234 -36 -575 -17 -754 42 -182 61 -237 139 -267 384 -17 145 -32
572 -28 809 6 309 0 297 278 636 288 352 381 515 435 755 22 102 32 433 15
538 -33 211 -132 539 -205 684 -78 155 -248 400 -364 523 -36 39 -95 112 -130
163 -112 165 -243 310 -467 517 -462 427 -844 689 -1349 925 -542 254 -1076
378 -1710 397 -208 6 -280 -3 -337 -40 -46 -31 -94 -107 -108 -170 -24 -107
14 -138 305 -243 110 -40 317 -118 460 -174 143 -56 359 -140 480 -186 288
-111 297 -115 455 -195 339 -171 761 -450 1060 -698 335 -279 452 -412 747
-853 153 -228 193 -298 235 -410 27 -72 31 -97 32 -183 1 -90 -2 -106 -27
-157 -57 -116 -205 -219 -405 -282 -143 -45 -193 -36 -351 64 -53 34 -57 35
-145 33 -53 -2 -95 2 -103 8 -22 19 13 64 137 173 321 283 412 428 427 682 10
169 -23 245 -131 302 -46 24 -60 27 -151 26 -76 -1 -121 -8 -188 -28 -163 -49
-392 -179 -484 -275 -94 -98 -165 -237 -178 -346 -9 -70 -18 -85 -52 -85 -32
0 -130 52 -183 97 -73 63 -86 123 -26 123 83 0 288 230 391 438 76 154 79 167
80 297 0 130 -13 176 -71 252 -25 34 -101 74 -163 88 -66 14 -512 -163 -687
-275 -26 -16 -53 -30 -60 -30 -10 0 -13 55 -16 228 -3 225 -3 227 -31 284 -24
49 -35 61 -82 84 -119 57 -219 42 -414 -64 -268 -146 -361 -310 -376 -662 -3
-69 -8 -143 -11 -166 l-5 -41 -89 -6 c-164 -11 -178 10 -110 161 61 137 81
226 82 367 1 164 -27 295 -95 430 -88 179 -211 287 -356 315 -139 26 -180 -24
-302 -373 -73 -213 -110 -277 -158 -277 -5 0 -24 27 -42 60 -64 121 -230 270
-390 351 -131 65 -184 51 -246 -68 -69 -130 -111 -309 -122 -519 -8 -150 -19
-194 -46 -194 -8 0 -47 30 -87 66 -78 70 -241 182 -377 259 -172 96 -288 121
-336 69 -34 -36 -63 -103 -88 -202 -19 -76 -21 -115 -22 -307 0 -217 0 -221
26 -276 15 -31 47 -87 73 -125 52 -78 56 -67 -45 -124 -77 -43 -186 -134 -217
-180 -28 -41 -24 -85 9 -112 34 -29 84 -10 231 86 149 96 210 120 236 94 31
-31 5 -64 -93 -118 -33 -18 -143 -90 -245 -160 -222 -153 -265 -180 -284 -180
-25 0 -27 47 -5 107 47 132 41 145 -139 286 -34 26 -68 60 -77 76 -14 28 -13
31 25 88 21 32 87 112 145 178 154 175 173 230 94 270 -53 28 -80 15 -229
-109 -213 -178 -265 -241 -305 -371 -25 -83 -56 -135 -80 -135 -30 0 -146 89
-313 242 l-43 40 30 136 c43 200 51 260 66 542 7 140 18 267 24 282 6 17 26
34 55 47 57 25 194 108 466 284 528 341 596 410 731 749 113 283 134 368 105
413 -32 49 -109 69 -198 50 -71 -15 -600 -176 -674 -205 -99 -39 -260 -124
-356 -187 -59 -39 -234 -175 -321 -251 -9 -8 -20 -13 -23 -9 -3 3 39 100 95
215 203 425 264 629 264 897 1 213 -33 336 -94 343 -14 2 -51 -11 -83 -27z
m-60 -338 c9 -34 -20 -235 -48 -338 -45 -165 -223 -470 -415 -710 -113 -141
-262 -295 -287 -295 -17 0 -18 6 -13 58 10 107 146 519 223 677 43 88 159 251
276 390 87 102 230 245 245 245 7 0 16 -12 19 -27z m5094 -709 c127 -50 539
-259 725 -369 297 -174 462 -290 775 -544 442 -359 860 -762 860 -829 0 -27
-52 -84 -94 -103 -64 -29 -92 -25 -111 15 -46 96 -399 443 -732 718 -151 126
-481 370 -649 481 -225 148 -367 228 -702 392 -161 80 -306 154 -322 165 -40
28 -41 70 -2 100 40 32 129 23 252 -26z m-4064 -86 c13 -21 5 -75 -20 -132
-109 -246 -469 -561 -872 -763 -146 -73 -211 -88 -244 -58 -28 25 -25 69 9
140 81 170 348 441 600 609 100 67 281 161 371 193 70 24 144 30 156 11z
m-1339 -579 c-8 -19 -41 -68 -75 -110 -90 -111 -172 -162 -172 -105 0 37 93
147 194 228 56 44 75 40 53 -13z m3818 -323 c43 -33 92 -103 118 -170 25 -61
28 -217 8 -311 -18 -83 -82 -267 -120 -346 -40 -85 -71 -119 -109 -119 -37 0
-96 39 -100 67 -3 17 5 23 40 34 48 16 97 75 101 124 2 33 -20 48 -125 86 -76
27 -107 52 -92 75 17 28 62 35 155 24 98 -12 117 -8 125 26 9 34 -16 67 -67
88 -119 50 -171 79 -181 102 -6 13 -9 27 -6 30 9 8 64 8 185 -1 l112 -8 12 27
c9 20 10 35 0 66 -11 36 -18 42 -95 79 -73 34 -126 77 -126 101 0 4 10 20 22
35 19 24 26 27 65 22 25 -3 57 -15 78 -31z m-4472 -6 c93 -29 181 -86 262
-171 123 -129 181 -253 163 -347 -17 -94 -54 -152 -166 -262 -61 -60 -127
-114 -152 -126 -66 -31 -265 -50 -360 -34 -241 41 -421 254 -420 498 1 120 44
225 130 312 139 142 346 191 543 130z m711 -182 c23 -32 20 -62 -10 -97 -30
-36 -72 -41 -99 -11 -23 25 -14 63 25 101 34 35 63 37 84 7z m4905 -57 c34
-24 43 -62 37 -156 -7 -92 -36 -205 -70 -274 -42 -81 -139 -202 -249 -308
-103 -100 -137 -122 -137 -85 1 22 14 37 83 95 81 68 78 98 -14 152 -97 57
-91 84 21 85 86 1 134 18 138 48 4 30 -18 55 -83 92 -28 16 -59 38 -69 49 -17
19 -17 20 5 31 16 9 52 11 125 6 66 -5 110 -3 122 3 38 20 57 126 27 151 -8 7
-42 15 -75 19 -126 15 -129 86 -5 115 36 8 119 -5 144 -23z m-1984 -25 c29
-19 86 -104 103 -155 23 -65 11 -301 -19 -415 -12 -45 -61 -99 -86 -94 -9 2
-20 14 -23 28 -7 31 -58 66 -108 75 -66 11 -72 21 -32 56 19 16 53 35 75 41
48 13 65 32 65 70 0 37 -30 54 -106 61 -65 5 -128 31 -121 50 5 17 94 59 139
65 50 6 67 36 48 81 -13 32 -36 50 -87 69 -18 7 -46 17 -63 23 -31 12 -39 32
-18 45 45 28 191 28 233 0z m-5647 -182 c43 -18 88 -58 108 -96 34 -66 5 -168
-68 -233 -125 -114 -251 -95 -324 47 -40 79 -30 154 29 216 70 74 173 101 255
66z m1034 -1 c9 -10 19 -28 22 -40 9 -28 10 -136 1 -162 -16 -51 -73 -22 -94
48 -12 41 -15 129 -5 155 8 22 57 20 76 -1z m3491 -104 c23 -12 74 -46 114
-76 241 -181 315 -391 213 -600 -37 -75 -79 -113 -124 -113 -32 0 -86 32 -86
51 0 5 25 33 56 62 61 57 84 92 84 132 0 36 -19 40 -139 27 -87 -10 -108 -10
-119 2 -20 19 16 56 103 104 77 43 107 80 89 109 -17 28 -67 27 -190 -3 -62
-16 -116 -25 -120 -21 -15 15 11 39 98 91 52 30 102 64 112 75 18 20 18 22 1
41 -23 26 -75 40 -146 40 -65 0 -87 16 -70 49 13 23 50 51 69 51 7 0 32 -10
55 -21z m3989 -90 c102 -22 158 -63 158 -116 0 -19 -15 -68 -34 -109 -75 -160
-210 -323 -305 -368 -49 -22 -55 -23 -99 -10 -88 27 -83 54 17 84 78 23 91 37
91 98 0 49 -23 71 -109 106 -149 60 -118 98 49 61 127 -28 166 -17 177 48 5
35 3 40 -56 96 -62 59 -67 67 -53 87 23 34 76 41 164 23z m-7959 -35 c47 -16
97 -63 97 -91 0 -41 -141 -114 -190 -98 -24 8 -60 65 -60 96 0 32 24 66 64 90
37 23 32 23 89 3z m5470 -104 c33 -39 69 -135 65 -174 -3 -29 -6 -30 -76 -44
-98 -19 -106 -15 -99 51 9 85 52 197 76 197 5 0 21 -13 34 -30z m-3245 -65
c71 -83 -54 -253 -263 -355 -56 -28 -114 -50 -130 -50 l-27 0 4 68 c6 118 85
248 193 322 57 39 93 50 149 46 40 -3 55 -9 74 -31z m5042 -102 c38 -199 25
-227 -97 -211 -116 15 -144 53 -99 133 42 77 159 217 167 203 4 -8 17 -64 29
-125z m-2564 5 c111 -114 123 -139 82 -179 -29 -27 -147 -84 -156 -74 -10 10
-16 325 -5 325 5 0 40 -33 79 -72z m4289 -238 c31 -34 16 -123 -40 -236 -98
-197 -353 -406 -495 -406 -53 0 -91 20 -108 58 -16 33 -15 39 4 59 12 11 25
14 46 10 44 -10 93 2 128 31 27 24 30 31 30 88 0 34 -5 110 -11 169 -11 112
-4 152 26 140 22 -8 61 -79 80 -145 9 -31 25 -68 37 -83 17 -22 25 -25 52 -19
53 11 106 44 117 71 6 16 7 69 3 133 -8 135 -2 150 65 150 35 0 53 -5 66 -20z
m-7422 -18 c40 -36 7 -142 -65 -208 -49 -44 -136 -85 -194 -92 -57 -6 -57 3 2
125 80 167 184 239 257 175z m4543 -23 c479 -47 1137 -264 1544 -509 125 -75
238 -153 460 -316 91 -67 189 -136 218 -154 80 -49 63 -93 -24 -59 -16 5 -109
61 -209 123 -219 138 -393 235 -630 353 -490 245 -785 343 -1195 399 -191 25
-630 30 -850 10 -339 -33 -406 -44 -525 -91 -296 -115 -666 -279 -942 -417
-254 -127 -279 -124 -97 12 153 116 368 246 579 350 370 183 597 249 1015 294
154 17 509 20 656 5z m-3816 -249 c97 -49 293 -222 337 -298 23 -40 25 -48 17
-104 -11 -78 -24 -86 -101 -70 -171 36 -404 205 -434 314 -11 43 -7 73 18 126
29 62 83 72 163 32z m3122 -130 c43 -12 88 -61 88 -96 0 -73 -62 -114 -143
-94 -49 13 -117 63 -117 87 0 31 36 76 75 94 47 22 49 22 97 9z m602 2 c2 -4
-18 -64 -45 -132 -89 -221 -111 -292 -117 -366 -5 -84 5 -121 58 -202 50 -78
129 -156 213 -211 37 -24 67 -49 67 -56 0 -36 -483 -215 -580 -215 -34 0 -54
22 -45 49 8 27 98 108 173 157 34 21 64 45 66 51 7 18 -55 80 -87 88 -18 5
-63 -2 -126 -20 -119 -32 -165 -31 -169 5 -4 33 20 55 133 123 98 58 108 74
80 126 -27 53 -57 52 -262 -11 -56 -17 -108 -28 -117 -25 -8 3 -22 18 -32 32
-14 21 -15 31 -6 51 14 30 31 36 170 68 218 49 298 118 371 321 47 128 62 152
104 164 40 12 144 14 151 3z m586 -69 c131 -32 270 -81 362 -130 54 -28 74
-45 84 -70 20 -46 17 -92 -6 -130 -26 -43 -56 -44 -65 -2 -5 20 -31 55 -70 95
-127 126 -345 195 -486 153 -119 -36 -132 -182 -26 -296 44 -48 54 -50 147
-27 81 21 138 8 187 -41 28 -28 33 -40 33 -81 0 -64 -36 -139 -87 -185 -40
-37 -125 -70 -183 -71 -33 -1 -159 65 -264 139 -98 69 -122 113 -113 207 8 83
34 155 118 328 l72 146 96 -5 c53 -2 143 -16 201 -30z m-1548 -19 c34 -18 48
-43 48 -86 -1 -64 -61 -109 -145 -110 -70 -1 -95 20 -102 85 -8 67 11 115 50
126 39 12 112 4 149 -15z m-1994 -46 c16 -14 15 -33 -8 -130 -11 -46 -20 -107
-20 -137 0 -52 2 -57 49 -102 38 -37 65 -53 116 -68 37 -12 78 -21 92 -21 62
0 82 -43 37 -79 -95 -75 -267 -44 -363 66 -86 97 -105 306 -39 425 33 58 94
79 136 46z m1591 -93 c32 -16 41 -33 41 -76 0 -121 -170 -196 -254 -112 -21
21 -26 35 -26 74 0 81 58 127 163 128 26 1 61 -6 76 -14z m-2642 -71 c108 -62
346 -287 359 -340 21 -84 -88 -93 -224 -18 -141 77 -342 248 -342 289 0 32 45
83 83 94 40 11 71 5 124 -25z m8270 -36 c12 -12 25 -36 29 -53 13 -70 -71
-165 -145 -165 -43 0 -98 41 -117 86 -13 30 -12 38 1 63 15 30 65 66 120 88
39 16 83 8 112 -19z m-2674 -164 c118 -28 207 -83 194 -117 -9 -25 -262 -45
-411 -32 -74 6 -89 10 -101 29 -20 30 -9 93 20 112 48 31 187 35 298 8z
m-5834 -101 c70 -41 295 -240 368 -326 41 -48 42 -75 4 -111 -39 -37 -58 -32
-160 44 -152 113 -301 271 -338 360 -14 32 -14 35 8 53 27 22 54 17 118 -20z
m3119 6 c40 -14 41 -37 5 -71 -56 -51 -116 -70 -288 -89 -177 -19 -355 3 -355
44 0 18 63 75 97 88 42 16 114 30 198 39 99 11 300 4 343 -11z m4050 -75 c109
-54 211 -197 220 -307 8 -108 -39 -113 -143 -16 -124 116 -205 236 -205 303 0
53 46 61 128 20z m896 -26 c15 -41 -9 -107 -55 -150 -53 -50 -144 -79 -276
-85 -56 -3 -113 -3 -128 1 -28 7 -65 59 -65 93 0 50 36 70 225 122 215 60 283
64 299 19z m-7017 -13 c82 -31 238 -112 287 -150 46 -35 49 -73 9 -105 -24
-18 -36 -21 -78 -15 -113 14 -347 112 -379 157 -22 31 -20 80 5 112 27 34 67
34 156 1z m5079 -139 c58 -18 72 -38 50 -72 -30 -44 -70 -49 -391 -49 -232 0
-307 3 -332 14 -45 18 -44 55 3 79 20 11 195 38 289 46 115 8 330 -1 381 -18z
m-4049 -12 c171 -27 308 -89 367 -167 51 -66 74 -157 40 -157 -9 0 -46 28 -82
61 -190 175 -453 194 -671 48 -156 -104 -224 -228 -290 -530 -48 -217 -83
-279 -185 -329 -138 -68 -332 -40 -475 69 -34 26 -91 96 -91 113 0 16 46 8
134 -23 113 -39 200 -47 286 -25 108 28 215 98 249 162 6 12 33 109 60 215 73
286 118 395 198 480 95 102 212 123 460 83z m4869 -56 c107 -101 286 -360 300
-435 13 -67 -53 -95 -123 -51 -20 11 -77 73 -127 137 -214 271 -243 332 -184
384 37 32 74 22 134 -35z m1282 -24 c35 -24 29 -71 -24 -171 -144 -275 -253
-376 -372 -345 -101 27 -162 97 -170 197 -8 93 11 107 172 132 122 18 144 28
226 109 61 59 111 94 135 94 6 0 21 -7 33 -16z m-4859 -19 c58 -30 36 -82 -60
-138 -149 -88 -473 -94 -556 -11 l-25 25 22 24 c40 43 191 92 354 115 87 13
228 5 265 -15z m1794 2 c11 -28 -23 -93 -72 -138 -65 -60 -169 -110 -436 -207
-273 -100 -367 -140 -468 -200 -120 -72 -190 -139 -234 -229 -34 -69 -38 -84
-37 -152 0 -90 17 -132 73 -194 111 -120 331 -150 459 -63 57 39 113 138 114
202 1 99 -111 224 -199 224 -36 0 -107 -40 -111 -63 -2 -10 12 -44 31 -77 48
-79 53 -109 27 -143 -59 -75 -180 13 -180 131 0 31 10 52 42 97 50 67 157 151
212 166 66 18 172 -19 235 -82 54 -54 65 -85 65 -179 0 -76 -4 -93 -37 -163
-62 -133 -168 -219 -309 -252 -169 -39 -319 -28 -438 31 -274 138 -294 520
-39 772 78 77 370 206 572 253 260 60 419 120 584 220 98 58 136 71 146 46z
m1422 -92 c27 -26 33 -73 13 -93 -7 -7 -24 -12 -39 -12 -34 0 -59 32 -59 75 0
58 43 73 85 30z m-5659 -6 c32 -6 95 -25 138 -41 94 -36 171 -104 181 -159 9
-51 -11 -157 -42 -219 -24 -46 -37 -59 -85 -83 -104 -54 -255 -31 -297 44 -8
14 -11 34 -8 43 8 21 59 19 138 -4 57 -17 98 -3 131 43 79 111 -62 287 -231
287 -81 0 -218 -106 -246 -190 -34 -101 -65 -70 -65 64 1 177 51 225 236 226
50 0 117 -5 150 -11z m1213 -143 c47 -33 91 -95 98 -142 5 -27 0 -38 -25 -64
-25 -24 -39 -30 -75 -30 -62 0 -79 21 -43 56 48 49 20 144 -42 144 -46 0 -102
-20 -133 -48 -60 -54 -49 -194 20 -263 49 -49 186 -89 309 -89 54 0 71 9 149
76 33 30 66 54 72 54 6 0 11 -17 11 -38 0 -162 -136 -262 -355 -263 -100 0
-167 16 -260 63 -128 65 -171 118 -162 201 15 122 152 312 264 364 45 20 126
11 172 -21z m3987 12 c17 -9 37 -24 44 -33 13 -15 11 -20 -12 -40 -15 -13 -51
-28 -80 -34 -145 -30 -600 -43 -648 -18 -34 17 -51 56 -41 93 l7 29 180 11
c256 17 510 13 550 -8z m-2769 -150 c25 -12 28 -18 28 -63 0 -76 -3 -77 -300
-72 -311 6 -359 18 -325 82 15 27 67 53 135 65 76 14 427 5 462 -12z m1821
-34 c20 -14 22 -24 22 -102 0 -147 -32 -356 -65 -426 -25 -51 -60 -86 -89 -86
-49 0 -90 82 -120 239 -29 151 -17 280 31 333 46 52 173 76 221 42z m1558 -35
c54 -33 209 -203 238 -260 31 -63 32 -84 8 -124 -24 -38 -63 -59 -95 -51 -67
16 -253 193 -296 281 -30 60 -37 133 -17 159 31 39 94 37 162 -5z m-642 -100
c13 -6 32 -26 42 -45 17 -32 17 -34 0 -53 -34 -38 -134 -59 -376 -81 -150 -13
-286 -12 -330 3 -26 9 -36 18 -38 38 -6 54 80 89 292 119 223 31 368 38 410
19z m1506 -11 c76 -52 108 -191 55 -243 -31 -32 -56 -31 -95 1 -47 40 -74 99
-74 167 -1 50 3 62 23 78 30 25 51 24 91 -3z m-4561 -143 c215 -32 323 -74
329 -128 3 -22 -2 -29 -25 -38 -42 -17 -296 -23 -381 -10 -83 13 -115 27 -155
67 -36 36 -43 68 -23 99 15 22 23 25 82 25 37 0 114 -7 173 -15z m3324 -37
c33 -17 144 -126 192 -188 99 -129 128 -213 83 -244 -51 -36 -110 -5 -239 125
-131 133 -189 242 -159 299 21 40 59 42 123 8z m-521 -152 c180 -74 378 -300
378 -432 0 -100 -48 -129 -158 -95 -151 46 -317 194 -388 346 -24 50 -30 120
-15 159 19 49 96 58 183 22z m1531 -10 c80 -29 204 -98 256 -143 61 -53 37
-58 -130 -29 -172 31 -239 33 -262 8 -30 -33 -78 -151 -84 -206 -7 -72 22
-137 73 -161 119 -56 188 -1 157 128 -20 89 10 110 92 64 56 -31 77 -77 72
-149 -11 -130 -74 -183 -217 -183 -73 0 -92 4 -137 27 -77 41 -183 146 -184
183 -7 149 34 335 92 416 50 71 152 87 272 45z m-4653 -72 c146 -59 232 -131
276 -231 20 -45 22 -58 12 -70 -18 -22 -94 -11 -165 26 -125 62 -303 216 -303
260 0 58 62 63 180 15z m5020 -199 c13 -16 7 -45 -9 -45 -14 0 -33 38 -26 50
9 14 21 12 35 -5z m-6645 -62 c20 -21 48 -58 63 -83 26 -44 27 -49 27 -210 0
-136 -3 -173 -18 -213 -19 -49 -55 -77 -96 -77 -38 0 -81 50 -98 115 -20 76
-22 284 -4 378 14 69 48 127 76 127 8 0 30 -17 50 -37z m3881 29 c20 -13 44
-70 44 -106 0 -44 -40 -93 -103 -126 l-44 -24 -45 27 c-65 38 -74 51 -57 85 8
15 41 55 74 90 48 49 67 62 90 62 17 0 35 -4 41 -8z m2820 -67 c11 -45 -1
-248 -16 -272 -14 -22 -65 -41 -77 -29 -3 3 -6 19 -5 36 1 41 53 262 65 278
15 19 26 14 33 -13z m-5131 -119 c28 -12 75 -39 106 -59 83 -53 206 -112 271
-131 63 -18 88 -44 88 -90 0 -41 -93 -132 -145 -142 -91 -17 -294 145 -368
295 -44 89 -50 151 -13 151 6 0 34 -11 61 -24z m2896 -99 c74 -50 102 -139 58
-186 -26 -28 -59 -24 -119 14 -72 45 -103 133 -63 177 23 25 82 23 124 -5z
m841 -93 c44 -28 88 -99 95 -152 7 -50 -26 -115 -70 -142 -48 -30 -121 -27
-153 5 -34 35 -54 85 -61 158 -13 143 75 205 189 131z m-412 -191 c23 -26 82
-108 132 -183 51 -74 107 -155 125 -179 23 -31 33 -55 33 -80 0 -49 -17 -106
-36 -122 -22 -18 -81 -13 -119 11 -57 35 -161 155 -219 252 -112 188 -126 297
-43 333 58 25 82 19 127 -32z m1798 -131 c52 -98 74 -197 76 -347 1 -141 -7
-179 -52 -227 -31 -34 -46 -35 -67 -5 -23 33 -112 311 -125 391 -18 113 7 209
66 255 24 19 30 20 48 8 12 -8 36 -41 54 -75z m-4641 -279 c18 -13 43 -38 57
-56 86 -113 154 -448 102 -506 -49 -55 -149 5 -210 127 -67 134 -110 336 -87
412 19 64 71 73 138 23z m-2034 -196 c55 -56 137 -194 157 -263 14 -47 5 -74
-35 -100 -31 -20 -45 -12 -127 74 -116 123 -170 270 -118 322 34 34 66 26 123
-33z m4822 -36 c64 -36 172 -151 237 -250 45 -68 49 -80 45 -119 -5 -50 -48
-102 -83 -102 -45 0 -249 185 -303 275 -46 75 -48 136 -7 189 15 20 35 36 44
36 9 0 40 -13 67 -29z m2305 -259 c30 -21 107 -67 170 -101 135 -74 204 -124
231 -167 24 -40 24 -56 -1 -79 -46 -41 -214 3 -353 95 -114 74 -167 146 -167
228 0 73 38 80 120 24z m-4597 -192 c36 -40 37 -101 2 -169 -35 -69 -136 -201
-224 -291 -67 -69 -79 -78 -104 -73 -69 13 -73 93 -12 258 98 267 146 322 265
310 34 -4 52 -12 73 -35z m2163 -109 c67 -30 118 -85 208 -220 177 -265 348
-594 348 -667 0 -95 -89 -83 -178 23 -56 67 -144 194 -144 208 0 6 -39 77 -86
156 -47 79 -99 170 -115 201 -31 61 -44 72 -101 82 -75 14 -113 109 -73 186
28 53 71 63 141 31z m-4782 -22 c82 -38 39 -208 -76 -302 -57 -47 -166 -100
-260 -128 -75 -22 -78 -22 -98 -4 -49 44 -17 120 99 235 108 108 205 174 308
209 1 1 13 -4 27 -10z m2623 -611 c48 -20 83 -59 83 -92 0 -41 -72 -250 -125
-361 -60 -128 -91 -166 -167 -205 l-65 -34 -57 24 c-77 31 -90 53 -82 133 20
196 141 442 255 517 49 33 108 39 158 18z"/>
<path d="M2431 7995 c-132 -37 -298 -161 -354 -263 -52 -96 -48 -188 10 -253
57 -63 127 -91 263 -104 135 -14 261 28 345 113 60 61 127 194 133 265 5 64
-9 95 -69 156 -88 87 -209 119 -328 86z m138 -196 c77 -27 36 -161 -72 -236
-37 -25 -48 -28 -121 -27 -45 1 -93 6 -108 12 -26 11 -28 16 -28 66 0 50 3 56
40 89 62 57 164 103 236 106 12 1 35 -4 53 -10z"/>
<path d="M395 7601 c-55 -34 -70 -58 -70 -116 0 -42 5 -59 23 -78 33 -35 75
-51 117 -43 65 12 133 92 121 141 -13 53 -91 115 -143 115 -10 0 -31 -8 -48
-19z"/>
<path d="M1515 7021 c-526 -113 -709 -142 -984 -160 -173 -11 -204 -22 -279
-94 -80 -77 -85 -104 -52 -302 49 -300 107 -535 141 -572 25 -26 74 -31 103
-10 25 18 36 139 29 307 -3 69 -1 143 4 165 7 34 13 41 37 43 44 5 71 -30 123
-161 52 -134 90 -187 132 -187 74 0 84 59 51 295 -17 120 -21 174 -14 206 16
75 67 79 91 7 6 -19 28 -113 48 -209 55 -259 61 -269 155 -269 40 0 56 5 75
24 36 37 40 94 16 283 -31 244 -28 293 13 293 51 0 92 -78 135 -254 37 -149
52 -183 85 -192 31 -8 129 21 147 42 11 13 14 63 14 225 0 230 5 250 48 207
33 -33 45 -79 58 -213 13 -137 23 -176 55 -215 21 -25 33 -30 68 -30 92 0 156
82 156 198 0 163 -104 507 -174 577 -22 22 -34 25 -88 24 -35 0 -121 -13 -193
-28z"/>
<path d="M4615 6969 c-90 -48 -304 -217 -305 -240 0 -23 53 -79 77 -80 53 -4
91 15 230 114 85 59 133 115 133 153 0 12 -9 33 -21 48 -25 32 -60 34 -114 5z"/>
</g>
</svg>
