<?xml version="1.0" standalone="no"?>
<!DOCTYPE svg PUBLIC "-//W3C//DTD SVG 20010904//EN"
 "http://www.w3.org/TR/2001/REC-SVG-20010904/DTD/svg10.dtd">
<svg version="1.0" xmlns="http://www.w3.org/2000/svg"
 width="1280.000000pt" height="952.000000pt" viewBox="0 0 1280.000000 952.000000"
 preserveAspectRatio="xMidYMid meet">
<metadata>
Created by potrace 1.15, written by Peter Selinger 2001-2017
</metadata>
<g transform="translate(0.000000,952.000000) scale(0.100000,-0.100000)"
fill="#000000" stroke="none">
<path d="M8162 9505 c-157 -28 -201 -69 -321 -303 -91 -175 -147 -257 -176
-257 -19 0 -20 7 -19 125 0 69 2 191 5 272 2 80 1 150 -4 154 -10 10 -120 -14
-377 -84 -206 -56 -215 -60 -218 -85 -5 -41 47 -490 74 -637 14 -74 34 -154
44 -178 24 -53 24 -52 5 -52 -24 0 -95 47 -148 99 -117 111 -217 314 -217 440
-1 84 -59 171 -116 171 -108 0 -445 -153 -546 -248 -39 -36 -36 -65 21 -179
93 -183 255 -407 393 -543 48 -48 88 -92 88 -98 0 -20 -76 -13 -145 13 -126
47 -259 140 -369 257 -167 178 -192 201 -223 215 -70 29 -117 -12 -194 -169
-117 -241 -84 -292 352 -542 l184 -106 -131 0 c-169 0 -276 26 -431 104 -115
57 -172 73 -218 62 -21 -5 -33 -21 -54 -69 -35 -76 -45 -136 -31 -186 15 -57
102 -134 203 -180 227 -105 635 -219 799 -223 95 -2 130 34 214 223 76 170
154 279 314 440 356 359 672 503 1100 503 180 0 297 -18 463 -71 201 -64 380
-152 597 -296 210 -139 365 -276 341 -300 -17 -17 -120 33 -316 154 -200 122
-319 185 -478 253 -254 108 -457 162 -586 154 -160 -10 -611 -190 -898 -360
-147 -87 -229 -176 -307 -335 -136 -276 -175 -646 -91 -856 48 -120 170 -261
216 -250 71 17 459 225 459 245 0 5 -30 84 -67 176 -66 165 -67 168 -68 262 0
136 24 183 158 315 144 141 315 251 452 291 175 50 495 -36 647 -176 35 -31
73 -62 85 -68 27 -15 106 -15 153 -2 60 18 154 28 178 19 52 -20 9 -65 -133
-137 -118 -61 -197 -126 -230 -192 -80 -159 -504 -395 -798 -446 -71 -12 -100
-13 -134 -5 -38 10 -50 9 -89 -8 -186 -83 -682 -486 -761 -619 -21 -36 -25
-52 -21 -98 6 -68 26 -91 168 -187 59 -40 145 -111 197 -163 63 -63 102 -94
124 -99 17 -4 83 -1 146 6 142 15 142 15 123 -84 -7 -39 -15 -96 -18 -125 -7
-97 34 -143 318 -355 262 -196 278 -201 449 -123 113 52 144 55 149 16 6 -40
-15 -93 -68 -171 -27 -41 -50 -83 -50 -95 0 -13 15 -35 35 -53 54 -47 99 -43
205 19 106 62 123 63 151 8 28 -55 16 -97 -46 -158 -25 -24 -45 -53 -45 -65 0
-33 41 -95 144 -218 227 -273 316 -429 380 -662 15 -55 36 -130 47 -167 19
-66 59 -128 83 -128 19 0 63 51 80 92 39 91 40 503 2 700 -8 41 -44 146 -81
233 -95 228 -151 388 -171 485 -28 141 -11 346 44 515 75 229 230 504 356 631
74 74 129 97 370 159 524 134 1234 240 1761 265 116 5 225 14 244 19 116 35
108 150 -19 294 -91 102 -259 217 -380 258 -117 39 -496 37 -915 -7 -294 -30
-448 -56 -670 -113 -230 -60 -345 -65 -345 -16 0 24 51 75 99 99 231 118 941
206 1681 210 236 1 284 -2 340 -17 159 -44 320 -160 438 -317 135 -181 197
-226 297 -218 78 7 135 36 205 107 112 111 171 281 173 496 2 114 -1 136 -20
177 -30 65 -177 215 -282 286 -115 79 -295 173 -405 211 -339 119 -945 206
-1236 178 -146 -14 -203 -7 -306 41 -50 23 -114 46 -144 52 -79 15 -313 12
-405 -6 -138 -26 -189 -28 -204 -11 -28 34 20 58 245 122 294 84 374 145 342
261 -25 93 -98 196 -157 222 -44 19 -198 21 -286 3 -114 -23 -261 -73 -415
-141 -147 -65 -239 -100 -260 -100 -20 0 -9 27 23 57 47 46 227 171 449 313
126 81 194 129 189 137 -3 7 -40 49 -81 94 -82 90 -177 159 -221 159 -72 0
-240 -91 -544 -294 -208 -139 -381 -246 -397 -246 -24 0 38 68 276 305 288
286 326 331 308 370 -22 48 -204 115 -312 115 -43 0 -67 -7 -110 -32 -77 -44
-287 -258 -400 -408 -130 -174 -188 -239 -239 -272 -53 -33 -91 -37 -91 -9 0
27 50 132 161 341 188 353 194 421 41 427 -37 1 -104 -5 -150 -12z m2014
-1764 c69 -31 88 -74 59 -131 -46 -90 -222 -75 -279 22 -19 35 -20 40 -6 65
33 60 144 81 226 44z m-1491 -955 c19 -14 19 -15 1 -34 -35 -40 -163 -86 -206
-75 -23 6 -33 29 -24 55 15 49 182 88 229 54z m-755 -156 c0 -25 -63 -87 -142
-140 -45 -30 -70 -40 -100 -40 -76 0 -141 65 -107 106 35 42 189 92 287 93 56
1 62 -1 62 -19z m389 -212 c22 -59 -59 -167 -164 -219 -91 -44 -145 -26 -145
48 0 62 65 127 169 170 74 30 129 31 140 1z m536 -59 c36 -58 -131 -157 -175
-104 -32 39 51 115 126 115 24 0 46 -5 49 -11z m-1679 -65 c-12 -100 -68 -168
-135 -162 -47 4 -49 22 -11 80 26 39 132 138 148 138 2 0 2 -25 -2 -56z m492
-119 c4 -38 -42 -112 -92 -150 -40 -30 -118 -46 -131 -26 -20 34 49 128 135
183 56 36 84 34 88 -7z m1527 -126 l20 -20 -24 -20 c-50 -41 -186 -13 -168 34
15 39 135 43 172 6z m-955 -119 c10 -6 15 -26 14 -65 0 -70 -38 -128 -109
-167 -70 -39 -108 -37 -152 7 -29 29 -34 40 -28 63 13 54 107 132 188 158 51
16 68 16 87 4z m508 -12 c20 -17 14 -39 -24 -74 -30 -29 -43 -34 -83 -34 -86
0 -133 63 -71 95 64 33 145 39 178 13z m165 -389 c20 -17 37 -36 37 -43 0 -14
-45 -59 -76 -74 -31 -16 -44 3 -44 64 0 93 19 106 83 53z m-431 -16 c22 -20
25 -108 4 -156 -37 -87 -133 -121 -181 -65 -19 22 -22 33 -16 60 11 48 35 89
73 124 60 56 89 65 120 37z m-453 -117 c27 -28 36 -81 22 -119 -32 -83 -231
-85 -231 -2 0 28 63 101 109 125 48 26 73 25 100 -4z"/>
<path d="M3469 7906 c-51 -18 -102 -60 -175 -143 -99 -114 -109 -138 -108
-263 0 -82 6 -126 28 -205 60 -218 361 -1022 562 -1503 48 -115 88 -224 91
-252 5 -46 4 -50 -20 -61 -35 -16 -356 1 -792 42 -462 42 -643 57 -797 65
l-136 7 -16 -25 c-20 -30 -35 -143 -36 -260 l0 -88 38 0 c111 0 983 -51 1387
-81 347 -26 348 -26 391 66 40 85 113 125 133 73 16 -44 54 -203 55 -233 1
-29 -1 -30 -43 -33 -25 -2 -133 6 -240 17 -240 25 -357 34 -856 66 -214 14
-478 34 -586 46 -210 21 -235 19 -263 -23 -20 -31 -46 -133 -46 -180 0 -50 7
-53 200 -67 364 -26 767 -46 1260 -62 398 -13 534 -7 584 26 53 35 71 13 200
-242 48 -95 105 -195 126 -222 22 -28 40 -55 40 -60 0 -29 -142 -31 -610 -7
-403 21 -1008 36 -1462 36 l-368 0 0 -150 0 -150 163 0 c89 0 547 -5 1017 -11
860 -11 1117 -6 1200 22 19 6 56 31 81 56 27 26 51 41 60 38 8 -3 30 -29 49
-57 50 -74 89 -117 121 -134 62 -32 163 -12 499 96 396 127 645 185 910 210
175 17 303 9 375 -24 153 -70 473 -489 492 -643 5 -44 2 -51 -25 -81 -71 -75
-149 -21 -327 228 -199 278 -317 370 -474 370 -177 0 -941 -215 -1208 -340
-104 -49 -121 -71 -104 -143 29 -128 153 -327 203 -327 53 0 194 75 448 240
308 200 430 250 430 175 0 -28 -52 -68 -190 -145 -190 -107 -283 -178 -484
-369 l-138 -131 -1500 0 -1500 0 7 -56 c16 -131 51 -219 96 -241 76 -39 2068
23 2661 82 172 18 218 30 235 65 27 55 71 64 124 25 82 -60 93 -65 124 -59 48
10 120 64 254 188 69 64 163 143 210 177 151 108 263 148 217 77 -23 -36 -179
-178 -435 -396 l-224 -192 -86 0 c-123 0 -1331 -28 -1746 -40 -1039 -31 -1389
-72 -1459 -172 -20 -28 -20 -56 -2 -99 35 -83 85 -94 381 -85 254 8 751 37
1107 66 415 34 681 49 958 55 428 10 623 32 774 89 105 40 138 38 189 -11 81
-79 133 -90 223 -47 119 56 272 186 427 362 54 62 117 125 138 139 37 24 40
25 58 9 47 -43 30 -132 -38 -196 -63 -60 -124 -134 -203 -250 -94 -136 -168
-270 -168 -302 0 -50 96 -128 242 -198 216 -104 269 -78 357 172 21 62 58 167
81 233 48 139 119 294 143 314 15 12 18 10 27 -15 23 -60 31 -243 25 -544 -6
-262 -5 -307 7 -318 19 -15 214 -32 376 -32 104 0 122 2 122 16 0 8 -10 91
-21 182 -28 221 -31 447 -6 485 36 56 107 25 153 -65 41 -81 54 -135 64 -270
14 -185 36 -220 185 -289 100 -47 152 -49 272 -9 201 66 323 137 338 197 17
69 -70 168 -319 361 -172 133 -292 247 -302 288 -10 37 24 64 80 64 66 0 177
-70 458 -291 238 -187 271 -205 348 -188 97 22 189 95 288 228 106 142 189
342 164 395 -14 32 -96 71 -212 100 -119 30 -226 48 -509 86 -272 36 -386 57
-425 77 -28 14 -28 16 -10 26 34 19 347 20 760 2 223 -10 406 -16 409 -13 11
11 -77 305 -105 348 -8 13 -86 16 -557 21 -301 4 -560 10 -575 14 -100 26 74
73 357 95 77 6 276 15 443 18 l302 7 -78 132 c-43 73 -98 158 -122 189 l-43
57 -136 -6 c-75 -3 -206 -17 -291 -31 -262 -42 -360 -55 -479 -66 -167 -14
-206 1 -108 44 57 25 190 67 367 116 268 73 450 144 450 174 0 36 -152 166
-257 220 -51 26 -93 19 -215 -32 -222 -95 -494 -172 -608 -172 -57 0 -60 1
-50 19 36 67 463 261 575 261 43 0 101 25 109 47 9 24 -31 79 -96 134 -122
102 -257 180 -312 182 -40 1 -140 -57 -329 -190 -148 -105 -241 -162 -264
-163 -40 0 6 58 217 276 91 93 178 189 194 212 l28 41 -21 30 c-52 72 -208
191 -272 206 -35 9 -80 -31 -158 -139 -92 -127 -295 -317 -430 -405 -66 -42
-101 -52 -101 -27 0 23 120 194 246 351 230 288 297 387 286 428 -16 66 -126
178 -192 198 -35 11 -43 9 -84 -15 -72 -42 -211 -162 -275 -238 -38 -45 -67
-91 -81 -131 -36 -99 -169 -217 -245 -217 -19 0 -25 5 -25 23 0 34 54 142 125
247 65 96 96 136 218 276 107 123 118 199 40 285 -42 46 -142 104 -196 114
-32 6 -42 4 -64 -16 -32 -31 -158 -199 -313 -419 -119 -169 -251 -320 -279
-320 -25 0 -6 82 45 191 27 57 98 192 158 299 128 230 226 423 226 446 0 48
-250 254 -309 254 -38 0 -87 -65 -236 -310 -213 -351 -295 -460 -347 -460 -60
0 -61 56 -3 178 20 42 92 170 161 285 157 262 222 393 231 467 9 83 -10 81
259 19 94 -21 218 -46 275 -54 120 -17 367 -20 421 -5 65 18 71 32 65 130 -16
243 -74 275 -702 394 -475 91 -542 99 -565 71 -14 -17 2 -72 56 -198 19 -43
34 -84 34 -91 0 -20 -39 -50 -113 -85 -51 -25 -80 -47 -117 -92 -55 -66 -128
-185 -196 -320 -60 -121 -158 -285 -201 -337 -25 -30 -42 -42 -57 -40 -30 4
-31 38 -3 95 14 26 45 98 70 160 60 145 93 211 185 363 157 259 177 371 81
454 -74 63 -169 82 -244 47 -56 -25 -69 -44 -129 -174 -127 -275 -265 -481
-312 -463 -14 5 -16 16 -11 69 8 81 45 180 155 412 122 258 132 299 86 354
-32 38 -123 91 -157 91 -27 0 -93 -74 -193 -217 -157 -224 -192 -270 -244
-324 -43 -44 -65 -59 -85 -59 -27 0 -28 1 -22 48 8 66 51 162 158 353 152 270
163 309 104 364 -104 99 -199 62 -325 -125 -75 -110 -114 -148 -138 -133 -29
18 -17 90 34 209 59 139 64 167 33 187 -52 34 -213 47 -280 23z"/>
<path d="M7915 7685 c-148 -32 -285 -106 -374 -200 -74 -78 -96 -131 -96 -230
0 -150 41 -222 152 -266 49 -20 76 -23 178 -23 133 0 194 13 322 67 167 71
288 177 353 311 54 112 54 151 0 210 -45 48 -155 109 -240 131 -67 18 -214 18
-295 0z"/>
<path d="M5965 6609 c-12 -19 45 -66 265 -218 299 -208 343 -225 434 -162 72
50 83 88 45 164 -55 110 -140 170 -284 203 -96 22 -449 32 -460 13z"/>
<path d="M569 5740 c-163 -28 -364 -173 -427 -308 -22 -47 -26 -71 -26 -137 1
-94 23 -165 80 -251 70 -105 151 -141 419 -188 628 -108 1003 -125 1080 -49
43 44 99 211 144 436 66 323 23 380 -324 431 -415 61 -812 88 -946 66z"/>
<path d="M2037 4701 c-4 -17 -9 -59 -13 -94 -16 -159 19 -166 992 -192 752
-20 1032 -20 1104 0 88 23 107 62 71 141 -15 32 -28 45 -68 62 -151 65 -577
92 -1649 107 l-431 6 -6 -30z"/>
<path d="M600 4700 c-121 -5 -202 -13 -235 -24 -111 -34 -310 -179 -344 -249
-26 -54 -26 -89 -1 -195 58 -244 191 -337 548 -386 214 -30 403 -40 707 -41
420 0 485 13 517 103 16 46 16 517 -1 607 -24 129 -74 153 -361 174 -194 14
-614 20 -830 11z"/>
<path d="M2161 3939 c-121 -20 -157 -63 -148 -175 6 -84 24 -116 67 -126 19
-4 384 -3 810 2 426 5 955 10 1175 10 220 0 431 3 469 7 l68 6 -4 82 c-5 87
-19 122 -61 150 -28 18 -269 31 -857 45 -498 12 -1443 11 -1519 -1z"/>
<path d="M765 3704 c-232 -13 -365 -54 -503 -156 -160 -118 -210 -241 -168
-408 40 -155 97 -228 230 -291 173 -83 378 -100 1125 -90 l464 6 -2 130 c-5
330 -32 664 -60 737 -23 61 -96 70 -606 73 -231 1 -447 1 -480 -1z"/>
<path d="M2880 3523 c-290 -5 -721 -24 -746 -33 -35 -14 -57 -71 -58 -156 -1
-86 13 -108 83 -123 153 -33 1165 -38 2156 -11 422 12 532 19 549 36 20 19 4
88 -44 193 l-41 88 -337 6 c-305 6 -1196 6 -1562 0z"/>
<path d="M851 2550 c-143 -10 -217 -24 -360 -67 -169 -51 -241 -95 -280 -172
-41 -81 -55 -273 -27 -377 45 -171 190 -310 396 -380 68 -23 234 -25 810 -6
410 13 482 20 534 50 60 35 71 71 70 222 -1 212 -63 610 -105 679 -31 52 -55
54 -509 57 -228 1 -466 -2 -529 -6z"/>
<path d="M5045 2393 c-259 -13 -2538 -202 -2645 -219 -109 -17 -159 -38 -177
-74 -22 -43 -16 -196 10 -259 34 -83 59 -96 175 -95 53 0 129 6 167 12 39 7
518 82 1065 167 547 86 1076 169 1175 186 470 78 697 137 726 190 13 25 -3 55
-44 79 -29 18 -49 20 -212 18 -99 -1 -207 -3 -240 -5z"/>
<path d="M5590 2134 c-388 -36 -863 -153 -978 -241 -59 -45 -101 -136 -147
-323 -29 -116 -97 -268 -170 -382 -26 -40 -100 -140 -163 -223 -285 -370 -419
-619 -399 -742 9 -51 33 -82 82 -104 90 -40 243 -34 344 14 29 13 100 73 192
163 180 174 216 197 307 196 79 0 180 -16 240 -38 62 -23 73 -51 82 -214 9
-146 24 -201 60 -220 61 -33 312 -17 420 26 78 31 150 137 150 221 0 40 19 95
38 111 26 20 124 14 196 -12 100 -36 171 -83 270 -178 107 -103 150 -127 243
-135 91 -7 244 12 300 39 105 49 111 161 22 394 -82 212 -103 221 -709 289
-554 63 -675 81 -750 111 -42 18 -50 29 -50 74 0 72 51 194 127 307 67 99 77
110 277 313 126 129 201 213 244 278 97 146 113 237 45 263 -30 12 -199 19
-273 13z"/>
<path d="M6562 1653 c6 -154 28 -224 145 -457 139 -277 195 -441 284 -824 24
-101 51 -197 61 -213 10 -17 34 -37 54 -45 48 -20 242 -29 327 -16 147 23 185
71 196 247 9 150 9 150 194 150 120 0 147 -3 170 -18 31 -20 68 -88 91 -167
44 -149 144 -218 302 -208 158 10 289 128 314 283 16 99 53 131 142 122 73 -6
154 -52 223 -125 135 -145 163 -170 229 -202 96 -48 194 -53 269 -16 96 46
137 138 117 260 -35 220 -197 431 -380 495 -86 30 -197 40 -575 51 -192 6
-496 17 -675 24 -418 18 -418 18 -476 172 -37 99 -53 173 -69 327 -15 152 -28
187 -85 224 -73 50 -188 63 -569 63 l-293 0 4 -127z"/>
</g>
</svg>
