<?xml version="1.0" standalone="no"?>
<!DOCTYPE svg PUBLIC "-//W3C//DTD SVG 20010904//EN"
 "http://www.w3.org/TR/2001/REC-SVG-20010904/DTD/svg10.dtd">
<svg version="1.0" xmlns="http://www.w3.org/2000/svg"
 width="1280.000000pt" height="975.000000pt" viewBox="0 0 1280.000000 975.000000"
 preserveAspectRatio="xMidYMid meet">
<metadata>
Created by potrace 1.15, written by Peter Selinger 2001-2017
</metadata>
<g transform="translate(0.000000,975.000000) scale(0.100000,-0.100000)"
fill="#000000" stroke="none">
<path d="M1050 9744 c-80 -10 -228 -48 -308 -80 -164 -67 -298 -159 -424 -294
-342 -365 -415 -907 -181 -1351 171 -325 484 -552 848 -616 122 -21 368 -13
475 15 230 61 417 169 572 330 511 532 422 1385 -189 1800 -117 79 -259 140
-403 173 -83 19 -311 32 -390 23z"/>
<path d="M3625 9740 c-446 -71 -814 -378 -955 -798 -224 -670 193 -1390 887
-1531 112 -23 312 -28 420 -11 371 60 706 307 876 645 77 155 117 333 117 528
0 551 -379 1025 -920 1148 -99 23 -333 33 -425 19z"/>
<path d="M6280 9745 c-8 -2 -49 -9 -90 -15 -349 -57 -673 -297 -839 -620 -174
-340 -176 -740 -7 -1074 156 -304 422 -519 761 -613 94 -26 112 -28 295 -28
182 0 202 2 293 27 129 36 226 78 323 137 266 165 452 418 531 720 34 132 42
338 19 480 -81 485 -443 861 -928 967 -66 14 -321 28 -358 19z"/>
<path d="M8875 9743 c-357 -46 -658 -232 -853 -527 -130 -197 -192 -405 -192
-643 0 -195 40 -373 117 -528 132 -262 372 -480 642 -582 136 -51 208 -64 381
-70 143 -4 179 -2 270 17 826 169 1215 1108 751 1815 -146 223 -418 418 -679
485 -138 35 -315 49 -437 33z"/>
<path d="M11485 9744 c-269 -41 -460 -127 -653 -293 -274 -236 -431 -632 -392
-992 50 -465 347 -848 778 -1003 148 -53 203 -61 407 -60 174 0 198 3 288 27
387 106 699 395 822 761 49 145 59 211 59 386 0 139 -4 180 -24 260 -110 450
-445 785 -891 890 -92 21 -319 35 -394 24z"/>
<path d="M1080 7284 c-14 -2 -59 -9 -100 -15 -228 -34 -486 -171 -652 -347
-446 -473 -434 -1200 27 -1658 224 -222 511 -338 835 -337 243 1 462 69 661
204 81 55 223 192 280 269 212 290 284 649 199 991 -105 422 -440 756 -865
863 -111 28 -298 42 -385 30z"/>
<path d="M3685 7284 c-305 -35 -552 -156 -754 -370 -143 -152 -253 -358 -296
-554 -25 -117 -31 -326 -11 -440 67 -386 303 -704 651 -878 178 -89 424 -133
626 -112 477 48 874 368 1017 820 45 142 55 226 49 402 -6 186 -32 299 -105
453 -66 137 -118 211 -227 324 -190 197 -440 320 -708 350 -92 10 -177 12
-242 5z"/>
<path d="M6255 7279 c-513 -61 -935 -466 -1020 -979 -36 -214 -6 -464 79 -661
82 -191 253 -397 420 -509 411 -274 922 -274 1332 0 107 72 266 235 332 343
118 190 171 362 179 583 14 362 -111 668 -374 914 -257 240 -597 351 -948 309z"/>
<path d="M8860 7280 c-257 -32 -511 -160 -695 -351 -109 -113 -161 -187 -227
-324 -72 -152 -99 -267 -105 -447 -6 -172 6 -272 49 -408 144 -452 536 -769
1017 -820 198 -21 447 23 626 112 235 117 441 325 549 552 331 697 -76 1514
-833 1671 -93 19 -283 27 -381 15z"/>
<path d="M11472 7280 c-705 -89 -1175 -777 -1001 -1465 55 -214 163 -399 328
-558 227 -219 498 -329 811 -330 324 -1 611 115 835 337 570 566 430 1514
-278 1887 -210 110 -467 157 -695 129z"/>
<path d="M1056 4820 c-227 -26 -448 -120 -627 -266 -218 -178 -372 -449 -414
-731 -77 -509 181 -1004 643 -1237 90 -45 221 -89 322 -107 105 -19 334 -16
435 6 454 97 805 433 915 874 81 326 19 670 -172 954 -62 93 -230 256 -329
321 -228 148 -509 215 -773 186z"/>
<path d="M3700 4823 c-205 -16 -419 -93 -587 -212 -591 -417 -675 -1257 -179
-1779 463 -487 1236 -492 1701 -11 109 113 161 187 227 324 72 152 99 267 105
447 6 172 -6 272 -49 408 -143 450 -535 768 -1010 820 -95 10 -117 10 -208 3z"/>
<path d="M6267 4819 c-445 -47 -843 -368 -987 -797 -203 -606 112 -1264 710
-1485 147 -54 243 -71 410 -71 207 0 360 36 534 125 124 63 193 115 302 223
139 139 218 265 282 447 93 263 80 591 -32 850 -168 390 -542 664 -966 709
-107 11 -142 11 -253 -1z"/>
<path d="M8875 4819 c-524 -64 -941 -457 -1031 -974 -12 -67 -15 -130 -11
-245 5 -188 31 -300 105 -455 66 -137 118 -211 227 -324 465 -481 1238 -477
1701 11 210 221 324 508 324 814 0 563 -406 1054 -957 1158 -107 20 -262 26
-358 15z"/>
<path d="M11486 4820 c-253 -29 -487 -138 -671 -313 -179 -169 -281 -338 -340
-559 -159 -606 174 -1223 770 -1426 161 -55 409 -73 575 -43 348 63 653 279
827 587 261 460 180 1038 -197 1414 -212 212 -477 328 -785 343 -55 3 -135 1
-179 -3z"/>
<path d="M968 2340 c-119 -25 -177 -45 -286 -98 -401 -193 -663 -614 -662
-1060 1 -230 67 -451 194 -647 76 -118 242 -281 358 -353 384 -238 855 -242
1239 -12 299 181 503 482 560 829 16 97 13 296 -5 395 -91 485 -475 868 -954
951 -118 21 -334 18 -444 -5z"/>
<path d="M3552 2339 c-482 -101 -842 -476 -927 -966 -39 -223 2 -508 101 -705
93 -185 272 -385 436 -486 635 -393 1457 -121 1731 573 98 247 104 562 15 813
-63 179 -147 313 -282 448 -175 174 -391 289 -624 329 -121 21 -334 19 -450
-6z"/>
<path d="M6225 2353 c-470 -74 -852 -420 -971 -880 -36 -135 -44 -339 -19
-483 49 -296 218 -575 455 -753 379 -284 898 -314 1305 -75 305 179 512 480
570 828 25 144 17 348 -19 483 -110 425 -431 743 -865 859 -59 15 -115 21
-251 23 -96 2 -188 1 -205 -2z"/>
<path d="M8790 2345 c-89 -17 -231 -65 -315 -108 -214 -107 -415 -308 -522
-522 -84 -166 -123 -336 -123 -537 0 -768 722 -1328 1470 -1142 187 47 370
150 520 291 242 229 370 527 370 859 0 465 -293 908 -719 1085 -149 62 -248
81 -436 85 -118 2 -193 -1 -245 -11z"/>
<path d="M11402 2346 c-299 -57 -578 -237 -755 -487 -153 -216 -233 -519 -207
-779 56 -568 471 -995 1038 -1071 94 -13 272 -7 362 11 395 81 725 352 873
721 61 152 81 254 81 429 1 169 -10 242 -55 382 -122 378 -436 671 -829 775
-80 21 -123 26 -265 29 -117 2 -193 -1 -243 -10z"/>
</g>
</svg>
